TITLE ""
FILE "Disc3Track11.mp3" MP3
  TRACK 01 AUDIO
    TITLE "Disc3Track11_01"
    INDEX 01 00:00:00
  TRACK 02 AUDIO
    TITLE "Disc3Track11_02"
    INDEX 01 00:02:21
  TRACK 03 AUDIO
    TITLE "Disc3Track11_03"
    INDEX 01 00:10:11
  TRACK 04 AUDIO
    TITLE "Disc3Track11_04"
    INDEX 01 00:12:43
  TRACK 05 AUDIO
    TITLE "Disc3Track11_05"
    INDEX 01 00:15:63
  TRACK 06 AUDIO
    TITLE "Disc3Track11_06"
    INDEX 01 00:16:19
  TRACK 07 AUDIO
    TITLE "Disc3Track11_07"
    INDEX 01 00:18:59
  TRACK 08 AUDIO
    TITLE "Disc3Track11_08"
    INDEX 01 00:22:14
  TRACK 09 AUDIO
    TITLE "Disc3Track11_09"
    INDEX 01 00:24:52
  TRACK 10 AUDIO
    TITLE "Disc3Track11_10"
    INDEX 01 00:30:09
  TRACK 11 AUDIO
    TITLE "Disc3Track11_11"
    INDEX 01 00:30:41
  TRACK 12 AUDIO
    TITLE "Disc3Track11_12"
    INDEX 01 00:32:04
  TRACK 13 AUDIO
    TITLE "Disc3Track11_13"
    INDEX 01 00:34:17
  TRACK 14 AUDIO
    TITLE "Disc3Track11_14"
    INDEX 01 00:35:54
  TRACK 15 AUDIO
    TITLE "Disc3Track11_15"
    INDEX 01 00:37:72
  TRACK 16 AUDIO
    TITLE "Disc3Track11_16"
    INDEX 01 00:38:30
  TRACK 17 AUDIO
    TITLE "Disc3Track11_17"
    INDEX 01 00:39:59
  TRACK 18 AUDIO
    TITLE "Disc3Track11_18"
    INDEX 01 00:42:24
  TRACK 19 AUDIO
    TITLE "Disc3Track11_19"
    INDEX 01 00:43:53
  TRACK 20 AUDIO
    TITLE "Disc3Track11_20"
    INDEX 01 00:50:49
  TRACK 21 AUDIO
    TITLE "Disc3Track11_21"
    INDEX 01 00:51:06
  TRACK 22 AUDIO
    TITLE "Disc3Track11_22"
    INDEX 01 00:52:44
  TRACK 23 AUDIO
    TITLE "Disc3Track11_23"
    INDEX 01 00:54:30
  TRACK 24 AUDIO
    TITLE "Disc3Track11_24"
    INDEX 01 00:55:68
  TRACK 25 AUDIO
    TITLE "Disc3Track11_25"
    INDEX 01 00:56:34
  TRACK 26 AUDIO
    TITLE "Disc3Track11_26"
    INDEX 01 00:57:57
  TRACK 27 AUDIO
    TITLE "Disc3Track11_27"
    INDEX 01 00:59:15
  TRACK 28 AUDIO
    TITLE "Disc3Track11_28"
    INDEX 01 01:00:40
  TRACK 29 AUDIO
    TITLE "Disc3Track11_29"
    INDEX 01 01:04:42
  TRACK 30 AUDIO
    TITLE "Disc3Track11_30"
    INDEX 01 01:04:73
  TRACK 31 AUDIO
    TITLE "Disc3Track11_31"
    INDEX 01 01:06:31
  TRACK 32 AUDIO
    TITLE "Disc3Track11_32"
    INDEX 01 01:07:36
  TRACK 33 AUDIO
    TITLE "Disc3Track11_33"
    INDEX 01 01:08:71
  TRACK 34 AUDIO
    TITLE "Disc3Track11_34"
    INDEX 01 01:09:23
  TRACK 35 AUDIO
    TITLE "Disc3Track11_35"
    INDEX 01 01:12:04
  TRACK 36 AUDIO
    TITLE "Disc3Track11_36"
    INDEX 01 01:14:15
  TRACK 37 AUDIO
    TITLE "Disc3Track11_37"
    INDEX 01 01:16:66
  TRACK 38 AUDIO
    TITLE "Disc3Track11_38"
    INDEX 01 01:20:49
  TRACK 39 AUDIO
    TITLE "Disc3Track11_39"
    INDEX 01 01:21:03
  TRACK 40 AUDIO
    TITLE "Disc3Track11_40"
    INDEX 01 01:22:32
  TRACK 41 AUDIO
    TITLE "Disc3Track11_41"
    INDEX 01 01:23:37
  TRACK 42 AUDIO
    TITLE "Disc3Track11_42"
    INDEX 01 01:24:62
  TRACK 43 AUDIO
    TITLE "Disc3Track11_43"
    INDEX 01 01:27:27
  TRACK 44 AUDIO
    TITLE "Disc3Track11_44"
    INDEX 01 01:27:56
  TRACK 45 AUDIO
    TITLE "Disc3Track11_45"
    INDEX 01 01:29:06
  TRACK 46 AUDIO
    TITLE "Disc3Track11_46"
    INDEX 01 01:31:09
  TRACK 47 AUDIO
    TITLE "Disc3Track11_47"
    INDEX 01 01:32:34
  TRACK 48 AUDIO
    TITLE "Disc3Track11_48"
    INDEX 01 01:36:69
  TRACK 49 AUDIO
    TITLE "Disc3Track11_49"
    INDEX 01 01:37:25
  TRACK 50 AUDIO
    TITLE "Disc3Track11_50"
    INDEX 01 01:38:46
  TRACK 51 AUDIO
    TITLE "Disc3Track11_51"
    INDEX 01 01:40:30
  TRACK 52 AUDIO
    TITLE "Disc3Track11_52"
    INDEX 01 01:41:51
